<?xml version="1.0"?>
<svg xmlns="http://www.w3.org/2000/svg" xmlns:xlink="http://www.w3.org/1999/xlink" version="1.1" id="Capa_1" x="0px" y="0px" viewBox="0 0 512 512" style="enable-background:new 0 0 512 512;" xml:space="preserve" width="512px" height="512px" class=""><g><g>
	<g>
		<path d="M426,0H161.24c-3.978,0-7.793,1.58-10.606,4.394l-75.24,75.239C72.581,82.446,71,86.262,71,90.24V497    c0,8.284,6.716,15,15,15h340c8.284,0,15-6.716,15-15V15C441,6.716,434.284,0,426,0z M146,251h80c8.284,0,15,6.716,15,15    s-6.716,15-15,15h-80c-8.284,0-15-6.716-15-15S137.716,251,146,251z M366,431h-80c-8.284,0-15-6.716-15-15s6.716-15,15-15h80    c8.284,0,15,6.716,15,15S374.284,431,366,431z M366,356H146c-8.284,0-15-6.716-15-15s6.716-15,15-15h220c8.284,0,15,6.716,15,15    S374.284,356,366,356z" data-original="#000000" class="active-path" data-old_color="#000000" fill="#6394FE"/>
	</g>
</g></g> </svg>
