<?xml version="1.0"?>
<svg xmlns="http://www.w3.org/2000/svg" xmlns:xlink="http://www.w3.org/1999/xlink" version="1.1" id="Capa_1" x="0px" y="0px" viewBox="0 0 496 496" style="enable-background:new 0 0 496 496;" xml:space="preserve" width="512px" height="512px" class=""><g transform="matrix(1.24472 0 0 1.24472 -60.6895 -60.6895)"><g>
	<g>
		<g>
			<path d="M424,40H72c-17.673,0-32,14.327-32,32v352c0,17.673,14.327,32,32,32h352c17.673,0,32-14.327,32-32V72     C456,54.327,441.673,40,424,40z M200,335.76V160.24L335.76,248L200,335.76z" data-original="#000000" class="active-path" data-old_color="#000000" fill="#FF685F"/>
			<path d="M456,0H40C17.92,0.026,0.026,17.92,0,40v416c0.026,22.08,17.92,39.974,40,40h416c22.08-0.026,39.974-17.92,40-40V40     C495.974,17.92,478.08,0.026,456,0z M480,456c0,13.255-10.745,24-24,24H40c-13.255,0-24-10.745-24-24V40     c0-13.255,10.745-24,24-24h416c13.255,0,24,10.745,24,24V456z" data-original="#000000" class="active-path" data-old_color="#000000" fill="#FF685F"/>
		</g>
	</g>
</g></g> </svg>
