<?xml version="1.0"?>
<svg xmlns="http://www.w3.org/2000/svg" xmlns:xlink="http://www.w3.org/1999/xlink" version="1.1" id="Capa_1" x="0px" y="0px" viewBox="0 0 325 325" style="enable-background:new 0 0 325 325;" xml:space="preserve" width="512px" height="512px"><g><g>
	<path d="M233.733,325h5.462c1.708,0,3.335-0.728,4.474-2.002l36.096-40.387c0.983-1.1,1.526-2.523,1.526-3.998v-4.689h-47.558V325z   " data-original="#000000" class="active-path" data-old_color="#000000" fill="#FDBF00"/>
	<path d="M275.291,0H49.709c-3.313,0-6,2.687-6,6v313c0,3.314,2.687,6,6,6h168.024v-59.075c0-4.418,3.582-8,8-8h55.558V6   C281.291,2.687,278.604,0,275.291,0z M130.917,261.374H76.778c-4.418,0-8-3.582-8-8c0-4.418,3.582-8,8-8h54.139   c4.418,0,8,3.582,8,8C138.917,257.792,135.335,261.374,130.917,261.374z M248.222,200.795H76.778c-4.418,0-8-3.582-8-8   c0-4.418,3.582-8,8-8h171.443c4.418,0,8,3.582,8,8C256.222,197.213,252.64,200.795,248.222,200.795z M248.222,140.209H76.778   c-4.418,0-8-3.582-8-8s3.582-8,8-8h171.443c4.418,0,8,3.582,8,8S252.64,140.209,248.222,140.209z M248.222,79.625H76.778   c-4.418,0-8-3.582-8-8s3.582-8,8-8h171.443c4.418,0,8,3.582,8,8S252.64,79.625,248.222,79.625z" data-original="#000000" class="active-path" data-old_color="#000000" fill="#FDBF00"/>
</g></g> </svg>
